<svg width="150" height="150" viewBox="0 0 150 150" fill="none" xmlns="http://www.w3.org/2000/svg">
<circle cx="75" cy="75" r="74" stroke="#FFE501" stroke-width="2" stroke-dasharray="4 4"/>
<path d="M0 75C1.73895e-06 55.1088 7.90176 36.0322 21.967 21.967C36.0322 7.90176 55.1088 2.13402e-06 75 0C94.8912 -2.13402e-06 113.968 7.90176 128.033 21.967C142.098 36.0322 150 55.1087 150 75L75 75L0 75Z" fill="#FFE501"/>
<path d="M87.9166 40.5429H62.9166" stroke="#010101" stroke-width="2" stroke-linecap="round" stroke-linejoin="round"/>
<path d="M77.8336 30.5022L87.917 40.5422L77.8336 50.5839" stroke="#010101" stroke-width="2" stroke-linecap="round" stroke-linejoin="round"/>
<path d="M40.9621 114.14C39.5901 114.14 38.5401 113.86 37.8121 113.3C37.0935 112.731 36.7341 111.942 36.7341 110.934V110.85H38.2461V111.074C38.2461 111.653 38.4468 112.077 38.8481 112.348C39.2588 112.619 39.9635 112.754 40.9621 112.754C41.8395 112.754 42.4601 112.656 42.8241 112.46C43.1975 112.255 43.3841 111.928 43.3841 111.48C43.3841 111.088 43.2581 110.794 43.0061 110.598C42.7635 110.402 42.3341 110.248 41.7181 110.136L39.4221 109.758C37.6208 109.441 36.7201 108.591 36.7201 107.21C36.7201 106.454 37.0515 105.81 37.7141 105.278C38.3861 104.746 39.3988 104.48 40.7521 104.48C42.0681 104.48 43.0621 104.774 43.7341 105.362C44.4061 105.95 44.7421 106.725 44.7421 107.686V107.77H43.2441V107.588C43.2441 107 43.0435 106.566 42.6421 106.286C42.2408 106.006 41.5641 105.866 40.6121 105.866C39.7721 105.866 39.1655 105.969 38.7921 106.174C38.4188 106.379 38.2321 106.697 38.2321 107.126C38.2321 107.518 38.3488 107.807 38.5821 107.994C38.8248 108.171 39.2355 108.321 39.8141 108.442L42.0961 108.834C43.9628 109.17 44.8961 110.024 44.8961 111.396C44.8961 112.171 44.5648 112.824 43.9021 113.356C43.2488 113.879 42.2688 114.14 40.9621 114.14ZM47.4815 114H45.9695V104.62H47.4815V108.596H52.9975V104.62H54.4955V114H52.9975V109.954H47.4815V114ZM60.515 114.14C59.0403 114.14 57.855 113.701 56.959 112.824C56.0723 111.937 55.629 110.766 55.629 109.31C55.629 107.854 56.0723 106.687 56.959 105.81C57.855 104.923 59.0403 104.48 60.515 104.48C61.999 104.48 63.1843 104.919 64.071 105.796C64.967 106.673 65.415 107.845 65.415 109.31C65.415 110.775 64.967 111.947 64.071 112.824C63.1843 113.701 61.999 114.14 60.515 114.14ZM58.023 111.872C58.5643 112.413 59.395 112.684 60.515 112.684C61.635 112.684 62.4657 112.413 63.007 111.872C63.5483 111.321 63.819 110.467 63.819 109.31C63.819 108.143 63.5483 107.289 63.007 106.748C62.4657 106.197 61.635 105.922 60.515 105.922C59.395 105.922 58.5643 106.197 58.023 106.748C57.491 107.289 57.225 108.143 57.225 109.31C57.225 110.477 57.491 111.331 58.023 111.872ZM68.044 114H66.532V104.62H71.124C72.188 104.62 73.0374 104.909 73.672 105.488C74.316 106.067 74.638 106.869 74.638 107.896C74.638 108.913 74.316 109.716 73.672 110.304C73.0374 110.883 72.188 111.172 71.124 111.172H68.044V114ZM70.984 105.978H68.044V109.814H70.984C71.712 109.814 72.2487 109.665 72.594 109.366C72.9487 109.067 73.126 108.577 73.126 107.896C73.126 107.215 72.9487 106.725 72.594 106.426C72.2487 106.127 71.712 105.978 70.984 105.978ZM79.4464 114H77.9344V104.62H79.5584L83.7584 110.108L84.9764 111.858H85.0884L85.0184 110.164V104.62H86.5304V114H84.9064L80.6784 108.526L79.5024 106.874H79.3904L79.4464 108.498V114ZM92.5345 114.14C91.0598 114.14 89.8745 113.701 88.9785 112.824C88.0918 111.937 87.6485 110.766 87.6485 109.31C87.6485 107.854 88.0918 106.687 88.9785 105.81C89.8745 104.923 91.0598 104.48 92.5345 104.48C94.0185 104.48 95.2038 104.919 96.0905 105.796C96.9865 106.673 97.4345 107.845 97.4345 109.31C97.4345 110.775 96.9865 111.947 96.0905 112.824C95.2038 113.701 94.0185 114.14 92.5345 114.14ZM90.0425 111.872C90.5838 112.413 91.4145 112.684 92.5345 112.684C93.6545 112.684 94.4852 112.413 95.0265 111.872C95.5678 111.321 95.8385 110.467 95.8385 109.31C95.8385 108.143 95.5678 107.289 95.0265 106.748C94.4852 106.197 93.6545 105.922 92.5345 105.922C91.4145 105.922 90.5838 106.197 90.0425 106.748C89.5105 107.289 89.2445 108.143 89.2445 109.31C89.2445 110.477 89.5105 111.331 90.0425 111.872ZM102.752 114H100.526L98.0476 104.62H99.7276L101.254 110.556L101.674 112.544H101.786L102.29 110.556L104.18 104.62H106.378L108.394 110.556L108.926 112.544H109.038L109.43 110.556L110.83 104.62H112.482L110.13 114H107.904L106.014 108.54L105.328 106.132H105.202L104.53 108.54L102.752 114Z" fill="#FFE501"/>
</svg>
